<?xml version="1.0" encoding="UTF-8"?>
<svg id="Layer_1" data-name="Layer 1" xmlns="http://www.w3.org/2000/svg" version="1.1" viewBox="0 0 34 34">
  <defs>
    <style>
      .cls-1 {
        fill: #1d5d48;
        stroke-width: 0px;
      }
    </style>
  </defs>
  <g>
    <path class="cls-1" d="M12.32,5.24s-.11,0-.16.01c-4.16.99-7.07,4.67-7.07,8.96v3.81c0,2.76-1.2,5.39-3.28,7.2-.05.04-.08.07-.11.08-.45.39-.71.96-.71,1.55,0,1.12.92,2.04,2.04,2.04h6.55l.05.28c.45,2.21,2.41,3.83,4.68,3.83s4.23-1.6,4.68-3.83l.05-.28h6.55c1.12,0,2.04-.92,2.04-2.04,0-.6-.25-1.16-.72-1.55-.03-.03-.05-.04-.08-.05-1.03-.89-1.81-1.93-2.39-3.13-.16-.33-.56-.48-.89-.32s-.48.56-.32.89c.65,1.4,1.6,2.61,2.79,3.63l.11.09c.09.12.15.27.15.43,0,.37-.32.69-.69.69H3.04c-.37,0-.69-.32-.69-.69,0-.16.05-.32.15-.44l.11-.09c2.44-2.08,3.85-5.11,3.85-8.31v-3.81c0-3.67,2.48-6.81,6.03-7.64.17-.04.32-.15.41-.31.09-.15.12-.33.08-.51-.07-.29-.35-.52-.65-.52,0,0,0,.03,0,.03ZM17.71,28.89l-.17.47c-.48,1.36-1.79,2.28-3.21,2.28s-2.73-.92-3.21-2.28l-.17-.47s6.77,0,6.77,0Z"/>
    <path class="cls-1" d="M24.57,1c-4.64,0-8.43,3.77-8.43,8.43s3.77,8.43,8.43,8.43,8.43-3.77,8.43-8.43S29.23,1,24.57,1ZM24.57,16.72c-4.03,0-7.29-3.28-7.29-7.31s3.28-7.31,7.29-7.31,7.29,3.28,7.29,7.31-3.28,7.31-7.29,7.31Z"/>
  </g>
  <g>
    <path class="cls-1" d="M24.43,10.19c-.4.39-.87.59-1.4.59-.68,0-1.23-.24-1.64-.71-.41-.47-.61-1.11-.61-1.89,0-.51.11-.97.33-1.4s.53-.75.92-.99c.4-.24.84-.35,1.33-.35s.96.13,1.36.39c.4.25.71.63.92,1.09.23.48.33,1.03.33,1.64v.57c0,1.29-.32,2.31-.96,3.04s-1.55,1.13-2.72,1.17h-.37v-1.28h.33c1.33-.07,2.05-.69,2.17-1.88ZM23.4,9.6c.25,0,.47-.07.64-.19.17-.13.32-.28.41-.47v-.63c0-.52-.09-.92-.29-1.21s-.47-.43-.8-.43c-.31,0-.56.15-.76.43s-.29.64-.29,1.05.09.77.29,1.04c.19.27.47.4.81.4,0,0-.01,0-.01,0Z"/>
    <path class="cls-1" d="M28.69,7.13h1.12v.81h-1.12v1.27h-.85v-1.27h-1.12v-.81h1.12v-1.21h.85v1.21Z"/>
  </g>
</svg>