<?xml version="1.0" encoding="UTF-8"?>
<svg id="Layer_1" data-name="Layer 1" xmlns="http://www.w3.org/2000/svg" version="1.1" viewBox="0 0 34 34">
  <defs>
    <style>
      .cls-1 {
        fill: #1d5d48;
        stroke-width: 0px;
      }
    </style>
  </defs>
  <path class="cls-1" d="M17,0C7.61,0,0,7.61,0,17s7.29,16.65,16.39,16.97h0c.2,0,.4.03.61.03s.39-.02.58-.03h0c3.91-.13,7.48-1.57,10.29-3.9,0,0,0,0,0,0,3.74-3.12,6.12-7.81,6.12-13.06C34,7.61,26.39,0,17,0ZM17,32.9c-4.15,0-7.92-1.61-10.75-4.22.1-1.45.36-2.72.81-3.89.32-.84.75-1.51,1.29-2.06.67-.67,1.53-1.04,2.57-1.09h.05s.19.03.19.03c.09.03.17.08.26.13.19.11.36.23.54.34l.12.08c.42.27.84.54,1.28.76,2.76,1.36,5.52,1.19,8.2-.49l.41-.27c.23-.15.45-.29.69-.43.26-.17.5-.16.65-.12,1.4.09,2.53.87,3.31,2.31.59,1.09.94,2.34,1.13,4.03.02.2.03.41.05.61-2.84,2.64-6.63,4.27-10.8,4.27ZM28.89,27.52c-.21-1.64-.6-2.99-1.24-4.17-.9-1.65-2.24-2.61-3.99-2.87-.46-.07-1.14-.11-1.74.34-.27.2-.55.37-.83.55l-.2.13c-2.59,1.6-5.1,1.6-7.69,0-.15-.09-.31-.19-.46-.3-.27-.18-.53-.35-.8-.49-.24-.13-.52-.27-.76-.27-.98.02-1.82.22-2.56.61-1.14.61-2,1.65-2.61,3.17-.42,1.03-.7,2.14-.86,3.32-2.5-2.81-4.04-6.5-4.04-10.55C1.1,8.23,8.23,1.1,17,1.1s15.9,7.13,15.9,15.9c0,4.04-1.53,7.72-4.01,10.52Z"/>
  <path class="cls-1" d="M16.84,5.62c-1.84,0-3.57.72-4.86,2.02-1.29,1.3-2,3.02-1.99,4.85,0,1.85.74,3.58,2.05,4.87,1.28,1.26,2.97,1.96,4.75,1.96,3.84-.03,6.91-3.11,6.89-6.86-.01-3.77-3.08-6.84-6.85-6.84ZM16.85,18.12c-3.12,0-5.65-2.54-5.65-5.65,0-1.52.59-2.94,1.65-4,1.06-1.06,2.48-1.65,4-1.65s2.94.59,4.01,1.65c1.06,1.06,1.65,2.48,1.65,4,0,3.12-2.54,5.65-5.65,5.65Z"/>
</svg>